HIERARCHY
ROOT Hips
{
    OFFSET 0.000000 0.000000 0.000000
    CHANNELS 6 Xposition Yposition Zposition Zrotation Xrotation Yrotation
    JOINT Spine
    {
        OFFSET -0.000000 6.993131 0.000000
        CHANNELS 3 Zrotation Xrotation Yrotation
        JOINT Spine1
        {
            OFFSET -0.000000 20.649729 0.000000
            CHANNELS 3 Zrotation Xrotation Yrotation
            JOINT Neck
            {
                OFFSET -0.000000 20.564924 1.869539
                CHANNELS 3 Zrotation Xrotation Yrotation
                JOINT Head
                {
                    OFFSET -0.000000 11.939490 -1.705642
                    CHANNELS 3 Zrotation Xrotation Yrotation
                    End Site
                    {
                        OFFSET -0.000000 21.320518 0.000000
                    }
                }
            }
            JOINT LeftShoulder
            {
                OFFSET 3.446977 19.850397 -0.038759
                CHANNELS 3 Zrotation Xrotation Yrotation
                JOINT LeftArm
                {
                    OFFSET 7.083611 0.000000 0.000000
                    CHANNELS 3 Zrotation Xrotation Yrotation
                    JOINT LeftForeArm
                    {
                        OFFSET 32.044487 0.000000 0.000000
                        CHANNELS 3 Zrotation Xrotation Yrotation
                        JOINT LeftHand
                        {
                            OFFSET 22.068741 0.000000 0.000000
                            CHANNELS 3 Zrotation Xrotation Yrotation
                            End Site
                            {
                                OFFSET 12.792312 0.000000 0.000000
                            }
                        }
                    }
                }
            }
            JOINT RightShoulder
            {
                OFFSET -3.365844 19.850397 -0.038759
                CHANNELS 3 Zrotation Xrotation Yrotation
                JOINT RightArm
                {
                    OFFSET -7.083611 0.000000 0.000000
                    CHANNELS 3 Zrotation Xrotation Yrotation
                    JOINT RightForeArm
                    {
                        OFFSET -32.044487 0.000000 0.000000
                        CHANNELS 3 Zrotation Xrotation Yrotation
                        JOINT RightHand
                        {
                            OFFSET -22.068741 0.000000 0.000000
                            CHANNELS 3 Zrotation Xrotation Yrotation
                            End Site
                            {
                                OFFSET -12.792312 0.000000 0.000000
                            }
                        }
                    }
                }
            }
        }
    }
    JOINT LeftUpLeg
    {
        OFFSET 8.528208 0.000000 0.000000
        CHANNELS 3 Zrotation Xrotation Yrotation
        JOINT LeftLeg
        {
            OFFSET -0.000000 -31.874865 0.000000
            CHANNELS 3 Zrotation Xrotation Yrotation
            JOINT LeftFoot
            {
                OFFSET -0.000000 -38.221939 0.000000
                CHANNELS 3 Zrotation Xrotation Yrotation
                JOINT LeftToeBase
                {
                    OFFSET -0.000000 -5.543335 12.792312
                    CHANNELS 3 Zrotation Xrotation Yrotation
                    End Site
                    {
                        OFFSET -0.000000 0.000000 3.411283
                    }
                }
            }
        }
    }
    JOINT RightUpLeg
    {
        OFFSET -8.528208 0.000000 0.000000
        CHANNELS 3 Zrotation Xrotation Yrotation
        JOINT RightLeg
        {
            OFFSET -0.000000 -31.874865 0.000000
            CHANNELS 3 Zrotation Xrotation Yrotation
            JOINT RightFoot
            {
                OFFSET -0.000000 -38.221939 0.000000
                CHANNELS 3 Zrotation Xrotation Yrotation
                JOINT RightToeBase
                {
                    OFFSET -0.000000 -5.543335 12.792312
                    CHANNELS 3 Zrotation Xrotation Yrotation
                    End Site
                    {
                        OFFSET -0.000000 0.000000 3.411283
                    }
                }
            }
        }
    }
}
MOTION
Frames:    6
Frame Time:    0.008333
24.068094    76.014359    30.119478    -4.708779    1.311307    92.463676    -0.637106    -6.933070    -0.728514    -1.653897    0.293687    -0.685730    0.002984    11.354311    9.347385    -1.498705    4.984267    9.582535    16.776321    0.375775    -0.425132    -19.861876    2.196884    -5.709565    6.506135    5.638648    -4.907972    1.044419    5.900675    -1.731506    -13.848168    2.531718    3.780949    16.775328    4.193503    5.162425    -7.852404    8.238703    3.483931    1.603125    8.486998    0.842322    -4.739142    -5.964131    -0.224187    3.503598    13.546159    -2.511573    -1.122119    -9.422339    -1.229593    0.000000    0.000000    0.000000    -8.629565    -0.636571    -3.727218    8.917342    8.865523    0.284724    -4.947038    -9.384709    -9.919291    0.000000    0.000000    0.000000    
24.085163    76.007736    30.123890    -4.710832    1.321177    92.490723    -0.681084    -6.927892    -0.734191    -1.595440    0.288430    -0.688991    0.029842    11.442334    9.395514    -1.580414    4.926871    9.622624    16.749449    0.381124    -0.445279    -19.864941    2.153515    -5.721761    6.490518    5.589949    -4.917333    1.069200    5.851246    -1.755908    -13.859724    2.562311    3.745134    16.784365    4.163515    5.174562    -7.899149    8.271797    3.475635    1.859384    8.524693    0.960107    -4.754364    -5.953725    -0.236087    3.517408    13.544898    -2.497738    -1.103069    -9.439949    -1.263453    0.000000    0.000000    0.000000    -8.642561    -0.612327    -3.748948    8.930483    8.858986    0.298254    -4.982047    -9.419677    -9.943063    0.000000    0.000000    0.000000    
24.095865    76.004898    30.126768    -4.706318    1.326195    92.502274    -0.707515    -6.921730    -0.732781    -1.568041    0.279692    -0.686258    0.047717    11.456574    9.382906    -1.594311    4.975685    9.608033    16.746550    0.388108    -0.458617    -19.871689    2.165195    -5.740582    6.492744    5.586073    -4.911316    1.074414    5.847169    -1.743328    -13.839025    2.505826    3.759682    16.784985    4.231149    5.107426    -7.944683    8.294107    3.499447    2.002393    8.552296    1.024674    -4.754780    -5.945079    -0.236406    3.512023    13.551296    -2.475929    -1.077734    -9.462844    -1.291382    0.000000    0.000000    0.000000    -8.647852    -0.589944    -3.730327    8.941255    8.847812    0.292172    -4.994615    -9.419210    -9.957386    0.000000    0.000000    0.000000    
24.102215    76.002495    30.128973    -4.711240    1.326534    92.513573    -0.701176    -6.914885    -0.738145    -1.580590    0.263803    -0.692160    0.042288    11.426268    9.385914    -1.562329    5.074008    9.615897    16.741062    0.400564    -0.439703    -19.862946    2.151835    -5.773592    6.490129    5.610431    -4.903022    1.096816    5.870826    -1.718846    -13.824533    2.523743    3.754561    16.789410    4.211497    5.115866    -7.907771    8.330941    3.465944    1.897291    8.587157    1.171380    -4.749890    -5.942818    -0.235116    3.505622    13.549006    -2.500190    -1.072519    -9.477270    -1.269903    0.000000    0.000000    0.000000    -8.650155    -0.588369    -3.725988    8.950382    8.849954    0.290090    -5.025403    -9.432899    -9.973533    0.000000    0.000000    0.000000    
24.109957    75.999886    30.131578    -4.710149    1.327116    92.520889    -0.710572    -6.903689    -0.734339    -1.580297    0.242356    -0.688237    0.079509    11.405273    9.378866    -1.560237    5.183506    9.608611    16.767382    0.399920    -0.441901    -19.896973    2.166607    -5.809417    6.507818    5.651563    -4.877007    1.106334    5.911029    -1.726106    -13.771934    2.574434    3.718302    16.757162    4.153798    5.150831    -7.890972    8.342138    3.459792    1.905082    8.597801    1.188818    -4.750278    -5.945295    -0.223163    3.516329    13.562932    -2.531473    -1.106135    -9.486451    -1.269993    0.000000    0.000000    0.000000    -8.652297    -0.585680    -3.732259    8.955169    8.870385    0.324206    -5.005373    -9.466372    -10.021813    0.000000    0.000000    0.000000    
24.115816    75.998116    30.134085    -4.713227    1.324392    92.530815    -0.714992    -6.893399    -0.731491    -1.563497    0.221145    -0.685461    0.116833    11.312428    9.393512    -1.608915    5.414392    9.620723    16.754309    0.412991    -0.456078    -19.899010    2.194896    -5.837151    6.507350    5.673484    -4.848386    1.132599    5.930841    -1.731348    -13.770082    2.567529    3.685692    16.759327    4.192285    5.161105    -7.875033    8.316212    3.468745    1.874383    8.571550    1.179220    -4.742376    -5.951150    -0.190969    3.517321    13.572410    -2.593966    -1.100988    -9.489965    -1.261158    0.000000    0.000000    0.000000    -8.648351    -0.576324    -3.720666    8.959769    8.857086    0.300405    -4.981939    -9.468827    -10.020334    0.000000    0.000000    0.000000    
